<svg xmlns="http://www.w3.org/2000/svg" width="23.75" height="23.718" viewBox="0 0 23.75 23.718"><defs><style>.cls-1{fill:#fff;fill-rule:evenodd}</style></defs><path class="cls-1" d="M16.825 9.88h-.7l-2.769-7.81a9.773 9.773 0 0 1 8.208 7.81 8.877 8.877 0 0 1 2.175 2.174A11.946 11.946 0 0 0 11.181-.006L6.335 13.537a1.001 1.001 0 0 0 1.879.692l3.659-10.281 3.659 10.281a1.001 1.001 0 0 0 1.879-.692l-.586-1.681a4.943 4.943 0 1 1-4.944 4.942 4.635 4.635 0 0 1 1.285-3.262l-.692-2.076a6.8 6.8 0 0 0-2.571 5.338 6.525 6.525 0 0 0 .791 3.164 4.728 4.728 0 0 1-3.757 1.779 4.9 4.9 0 0 1-4.945-4.943 5 5 0 0 1 2.67-4.349l.89-2.471a6.991 6.991 0 0 0-5.538 6.82 6.879 6.879 0 0 0 6.923 6.92 7.043 7.043 0 0 0 4.944-2.076 6.921 6.921 0 1 0 4.944-11.763zm0 0"/></svg>