<svg xmlns="http://www.w3.org/2000/svg" viewBox="0 0 31.066668 23.280001" height="23.28" width="31.067"><defs><clipPath id="a"><path d="M0 174.605V0h232.973v174.605z"/></clipPath></defs><g clip-path="url(#a)" transform="matrix(.13333 0 0 -.13333 0 23.28)"><path d="M97.074 87.3h19.41c0-19.39 12.614-29.105 29.121-29.105v-19.39c-27.171 0-48.53 19.39-48.53 48.496zm48.531 67.895c-37.851 0-67.953-30.054-67.953-67.894 0-37.82 30.102-67.89 67.953-67.89 37.868 0 67.957 30.07 67.957 67.89 0 37.84-30.089 67.894-67.957 67.894zm0-155.195H9.695v19.41h81.551C70.856 38.805 58.242 60.145 58.242 87.3c0 48.501 38.832 87.305 87.363 87.305 48.547 0 87.368-38.804 87.368-87.304C232.973 38.805 194.152 0 145.605 0zM0 77.606V97h38.82V77.606H0zm63.09 77.589H9.695v19.41H84.45c-7.765-9.695-14.562-9.695-21.36-19.41zM42.715 116.41H29.12v19.391h21.36c-2.919-9.696-5.833-9.696-7.766-19.391zM9.695 38.805v19.39h33.02c1.933-9.695 4.847-9.695 7.765-19.39H9.696" fill="#33364e"/></g></svg>