<svg xmlns="http://www.w3.org/2000/svg" viewBox="0 0 32.893333 24.68" height="24.68" width="32.893"><defs><clipPath id="a"><path d="M0 0h246.672v185H0z"/></clipPath></defs><g clip-path="url(#a)" transform="matrix(.13333 0 0 -.13333 0 24.68)"><path d="M246.672 21.57h-20.563c0 19.516-14.382 35.946-32.886 40.043-5.141 1.028-8.227 5.145-8.227 10.274 0 3.086 1.027 6.172 4.113 8.215 9.243 7.199 16.446 19.511 16.446 32.871 0 19.496-13.36 36.968-37.004 41.07-1.028 3.086-2.043 6.156-4.098 9.242-2.058 4.113-4.117 8.215-7.203 11.301 35.973 4.098 68.859-24.645 68.859-61.613 0-13.36-5.14-26.7-13.355-36.973 20.543-10.27 33.918-31.844 33.918-54.43zM133.605 123.242c0 22.586-18.484 41.07-41.101 41.07-22.613 0-41.117-18.484-41.117-41.07 0-22.597 18.504-41.086 41.117-41.086 22.617 0 41.101 18.489 41.101 41.086zM184.996 0h-20.543c-5.144 34.914-35.976 61.613-71.95 61.613-35.972 0-66.8-26.699-71.944-61.613H0c4.113 32.871 25.703 60.602 55.504 73.941-15.414 11.301-24.66 29.789-24.66 49.301 0 33.887 27.746 61.613 61.66 61.613 33.918 0 61.66-27.726 61.66-61.613 0-19.512-9.242-38-24.656-49.3 29.801-13.34 51.387-41.07 55.488-73.942" fill="#575a5b"/></g></svg>