<svg xmlns="http://www.w3.org/2000/svg" width="10.5" height="10.5" viewBox="0 0 10.5 10.5"><defs><style>.cls-1{fill:#fff;fill-rule:evenodd}</style></defs><path id="Instagram_Icon" data-name="Instagram Icon" class="cls-1" d="M651.962 543.05h-8.686a.91.91 0 0 0-.876.9v2.27h3.386a3.038 3.038 0 0 1 1.781-.717 3.07 3.07 0 0 1 1.782.717h3.551v-2.27a.942.942 0 0 0-.938-.9zm.222 2.159a.336.336 0 0 1-.36.305h-1.4a.349.349 0 0 1-.373-.305v-1.143a.343.343 0 0 1 .373-.3h1.4a.33.33 0 0 1 .36.3v1.143zm-2.835 3.236a1.783 1.783 0 1 1-1.782-1.847 1.824 1.824 0 0 1 1.782 1.847zm.938-.734a.83.83 0 0 1 .262.69 2.894 2.894 0 1 1-5.787 0 2.42 2.42 0 0 1 .088-.69h-2.45v4.9a.917.917 0 0 0 .876.94h8.751a.916.916 0 0 0 .873-.94v-4.9h-2.613z" transform="translate(-642.406 -543.062)"/></svg>