<svg xmlns="http://www.w3.org/2000/svg" width="13" height="12" viewBox="0 0 13 12"><defs><style>.cls-1{fill:#7e7e7e;fill-rule:evenodd}</style></defs><path id="Фигура_1" data-name="Фигура 1" class="cls-1" d="M445.259 38.789h.7v3.048a.382.382 0 0 0 .467.462h6.365a.385.385 0 0 0 .464-.469v-9.672a.38.38 0 0 0-.45-.457h-6.39a.384.384 0 0 0-.457.473v3.095h-.692c0-.081-.012-.162-.012-.242v-2.924a1.03 1.03 0 0 1 1.119-1.1h6.415A1.08 1.08 0 0 1 454 32.208v9.6a1.065 1.065 0 0 1-1.208 1.2h-6.339a1.052 1.052 0 0 1-1.194-1.179v-3.04zm-2.805-1.39l1.942 1.91-.57.475L441 37.035l2.842-2.887.552.556-1.947 1.93h4.945v.766h-4.938z" transform="translate(-441 -31)"/></svg>