<svg xmlns="http://www.w3.org/2000/svg" width="15.781" height="10.906" viewBox="0 0 15.781 10.906"><defs><style>.cls-1{fill:#fff;fill-rule:evenodd}</style></defs><path id="Mail_Icon" data-name="Mail Icon" class="cls-1" d="M933.63 551.511a1.022 1.022 0 0 1-1 1h-13.779a1.022 1.022 0 0 1-1-1v-8.882a1 1 0 0 1 .965-.982l.018-.055h13.778l.018.055a.994.994 0 0 1 1 .982v8.882zm-15.78 1zm0 0zm14.561-2.42v-6.079l-3.986 3.039zm0-7.281h-13.342c2.221 1.675 4.441 3.349 6.662 5.042a933.243 933.243 0 0 1 6.68-5.041zm0 8.482l-4.8-3.622-1.275.983h-1.219l-1.256-.965-4.787 3.6h13.342zm-9.374-4.241l-3.968-3.039v6.079z" transform="translate(-917.844 -541.594)"/></svg>