<svg xmlns="http://www.w3.org/2000/svg" width="14.75" height="14.719" viewBox="0 0 14.75 14.719">
  <defs>
    <style>
      .cls-1 {
        fill: #ff5012;
        fill-rule: evenodd;
      }
    </style>
  </defs>
  <path class="cls-1" d="M888.458,291.217l-0.869-.869-2.172,2.173-2.172-2.173-0.869.869,2.172,2.172-2.172,2.173,0.869,0.868,2.172-2.172,2.172,2.172,0.869-.868-2.172-2.173Zm-2.933-5.2a7.373,7.373,0,1,0,7.373,7.372,7.394,7.394,0,0,0-7.373-7.372h0Zm0,13.516a6.144,6.144,0,1,1,6.144-6.144,6.162,6.162,0,0,1-6.144,6.144h0Zm0,0" transform="translate(-878.156 -286.031)"/>
</svg>
