<svg xmlns="http://www.w3.org/2000/svg" width="9.688" height="16.688" viewBox="0 0 9.688 16.688">
  <defs>
    <style>
      .cls-1 {
        fill: #fff;
        fill-rule: evenodd;
      }
    </style>
  </defs>
  <path class="cls-1" d="M692.514,376.861a4.3,4.3,0,1,0-4.323-4.3A4.313,4.313,0,0,0,692.514,376.861Zm0-6.077a1.78,1.78,0,1,1-1.79,1.78A1.787,1.787,0,0,1,692.514,370.784Zm1.748,9.583a8.089,8.089,0,0,0,2.51-1.034,1.254,1.254,0,0,0,.4-1.736,1.27,1.27,0,0,0-1.746-.4,5.513,5.513,0,0,1-5.819,0,1.269,1.269,0,0,0-1.746.4,1.254,1.254,0,0,0,.4,1.736,8.117,8.117,0,0,0,2.509,1.034l-2.416,2.4a1.263,1.263,0,0,0,1.791,1.781l2.374-2.361,2.376,2.361a1.27,1.27,0,0,0,1.79,0,1.254,1.254,0,0,0,0-1.781Z" transform="translate(-687.656 -368.25)"/>
</svg>
