<svg xmlns="http://www.w3.org/2000/svg" width="8.406" height="8.157" viewBox="0 0 8.406 8.157"><defs><style>.cls-1{fill:#fff;fill-rule:evenodd}</style></defs><path id="RSS_Icon" data-name="RSS Icon" class="cls-1" d="M646.184 573.379a.834.834 0 0 0-1.668 0 .822.822 0 0 0 .827.8.835.835 0 0 0 .841-.8zm3.838.8a5.786 5.786 0 0 0-5.506-5.356v1.638a4.361 4.361 0 0 1 3.815 3.718h1.691zm2.878 0a8.394 8.394 0 0 0-8.384-8.163v1.638a6.755 6.755 0 0 1 6.692 6.525h1.692z" transform="translate(-644.5 -566.031)"/></svg>