<svg xmlns="http://www.w3.org/2000/svg" width="10" height="10" viewBox="0 0 10 10">
  <defs>
    <style>
      .cls-1 {
        fill-rule: evenodd;
      }
    </style>
  </defs>
  <path id="Фигура_3" data-name="Фигура 3" class="cls-1" d="M732.882,362.007a3.878,3.878,0,1,0,2.214,7.061l2.876,2.875a0.135,0.135,0,0,0,.193,0l0.776-.775a0.139,0.139,0,0,0,0-.193l-2.876-2.876a3.877,3.877,0,0,0-3.183-6.092h0Zm0,6.842a2.965,2.965,0,1,1,2.965-2.964,2.964,2.964,0,0,1-2.965,2.964h0Zm0,0" transform="translate(-729 -362)"/>
</svg>
