<svg xmlns="http://www.w3.org/2000/svg" width="12.25" height="8.657" viewBox="0 0 12.25 8.657"><defs><style>.cls-1{fill:#fff;fill-rule:evenodd}</style></defs><path id="Twitter_Icon" data-name="Twitter Icon" class="cls-1" d="M650.767 522.246a.085.085 0 0 1-.023-.02 2.213 2.213 0 0 0-1.617-.586l-.019-.042a.015.015 0 0 1 .012 0 1.933 1.933 0 0 0 .993-.389.129.129 0 0 0-.13-.189 3.309 3.309 0 0 0-.775.181c.294-.181.409-.308.343-.374a1.547 1.547 0 0 0-.932.432.488.488 0 0 0 .138-.328 2.557 2.557 0 0 0-.413.336 6.357 6.357 0 0 0-.6.736l-.008.019a6.456 6.456 0 0 0-.832 1.858l-.061.047-.012.011a3.1 3.1 0 0 0-.86-.718 10.3 10.3 0 0 0-1.414-.72 12.187 12.187 0 0 0-1.8-.724 1.72 1.72 0 0 0 .989 1.549v.011a2.19 2.19 0 0 0-.676.1 1.491 1.491 0 0 0 1.337 1.252v.012a.993.993 0 0 0-.821.324 1.483 1.483 0 0 0 1.487.755.992.992 0 0 0-.325.232.465.465 0 0 0-.13.462.826.826 0 0 0 .833.37l.022.027-.011.012a3.147 3.147 0 0 1-2.533.94l-.016.008a3.258 3.258 0 0 1-1.948-.837 6 6 0 0 0 2.789 2.113 6.878 6.878 0 0 0 3.962.092h.023a6.3 6.3 0 0 0 3.26-2.185 4.345 4.345 0 0 0 .776-1.658 1.624 1.624 0 0 0 1.448-.555l-.008-.011a3.012 3.012 0 0 1-1.3-.073v-.07a1.347 1.347 0 0 0 1.257-.659 2.053 2.053 0 0 1-1.46.015 2.981 2.981 0 0 0-.945-1.756z" transform="translate(-640.969 -520.812)"/></svg>