<svg xmlns="http://www.w3.org/2000/svg" width="24" height="23" viewBox="0 0 24 23">
  <defs>
    <style>
      .cls-1 {
        fill: #fff;
        fill-rule: evenodd;
      }
    </style>
  </defs>
  <path class="cls-1" d="M520,173.251a8,8,0,1,0-15.991-.1v0.1a7.98,7.98,0,0,0,4,14.9,7.738,7.738,0,0,0,4-1.1,7.731,7.731,0,0,0,4,1.1,8.02,8.02,0,0,0,8-8,7.9,7.9,0,0,0-4-6.9h0Zm-8-6.1a5.876,5.876,0,0,1,5.9,5.3,5.812,5.812,0,0,0-1.9-.3,7.731,7.731,0,0,0-4,1.1,7.738,7.738,0,0,0-4-1.1,5.812,5.812,0,0,0-1.9.3,5.876,5.876,0,0,1,5.9-5.3h0Zm1.7,7.4a5.857,5.857,0,0,1,2.3-.4,6.268,6.268,0,0,1,1.9.3,5.659,5.659,0,0,1-2.2,3.4,9.439,9.439,0,0,0-2-3.3h0Zm0.2,4.3a6.16,6.16,0,0,1-3.8,0,6.242,6.242,0,0,1,1.9-3.2,6.13,6.13,0,0,1,1.9,3.2h0Zm-5.9-4.7a8.5,8.5,0,0,1,2.3.4,9.439,9.439,0,0,0-2,3.3,5.965,5.965,0,0,1-2.2-3.4,6.268,6.268,0,0,1,1.9-.3h0Zm0,12a5.983,5.983,0,0,1-3.7-10.7,8.236,8.236,0,0,0,3.7,4.7v0.1a8.12,8.12,0,0,0,2.3,5.6,15.982,15.982,0,0,1-2.3.3h0Zm2.1-5.2a6.16,6.16,0,0,0,3.8,0,6.052,6.052,0,0,1-1.9,3.7,5.564,5.564,0,0,1-1.9-3.7h0Zm5.9,5.2a8.5,8.5,0,0,1-2.3-.4,7.937,7.937,0,0,0,2.3-5.6v-0.1a7.926,7.926,0,0,0,3.7-4.7,5.969,5.969,0,0,1,2.3,4.7,6.037,6.037,0,0,1-6,6.1h0Zm0,0" transform="translate(-500 -165.156)"/>
</svg>
