<svg xmlns="http://www.w3.org/2000/svg" width="17.844" height="10.312" viewBox="0 0 17.844 10.312"><defs><style>.cls-1{fill:#fff;fill-rule:evenodd}</style></defs><path class="cls-1" d="M8.739 10.167h1.066a.9.9 0 0 0 .487-.214.783.783 0 0 0 .146-.469s-.021-1.434.643-1.645 1.5 1.386 2.387 2a1.688 1.688 0 0 0 1.185.362l2.383-.033s1.246-.077.655-1.06a7.975 7.975 0 0 0-1.771-2.054c-1.494-1.389-1.294-1.164.5-3.568 1.1-1.464 1.534-2.358 1.4-2.741a1.038 1.038 0 0 0-.936-.268l-2.682.017a.613.613 0 0 0-.347.061.75.75 0 0 0-.237.288 15.582 15.582 0 0 1-.99 2.1c-1.2 2.032-1.672 2.14-1.868 2.014-.454-.3-.34-1.182-.34-1.813 0-1.97.3-2.791-.581-3A4.61 4.61 0 0 0 8.587.019a5.772 5.772 0 0 0-2.226.229c-.3.149-.54.483-.4.5a1.208 1.208 0 0 1 .792.4 2.6 2.6 0 0 1 .265 1.217s.158 2.319-.369 2.607c-.361.2-.858-.206-1.922-2.05A17.157 17.157 0 0 1 3.769.933a.8.8 0 0 0-.221-.3 1.111 1.111 0 0 0-.412-.166L.587.483a.867.867 0 0 0-.523.178.558.558 0 0 0-.01.455s2 4.679 4.255 7.037a6.117 6.117 0 0 0 4.425 2.021z"/></svg>